<svg width="256" height="160" xmlns="http://www.w3.org/2000/svg" xmlns:svg="http://www.w3.org/2000/svg">
 <metadata>Those Icons</metadata>
 <g>
  <title>Layer 1</title>
  <g stroke="null" id="svg_1" fill="#303C42">
   <path stroke="null" id="svg_2" d="m126.56447,67.85881l-9.06825,0l0,15.35542l9.06825,0c6.22065,0 9.88185,-2.79253 9.88185,-7.65309c0,-4.85352 -3.58493,-7.70936 -9.88185,-7.70936l0,0.00703z"/>
   <path stroke="null" id="svg_3" d="m152.31999,93.06196c0,2.48303 2.62725,4.0657 6.66135,4.0657c5.1189,-0.06331 9.06825,-2.79253 9.06825,-6.61908l0,-2.25091l-8.48348,0.49239c-4.75448,0.23916 -7.24613,1.69522 -7.24613,4.30486l0,0.00703z"/>
   <path stroke="null" id="svg_4" d="m237.3751,3.02559l-220.35001,0c-9.34793,0 -16.95,6.30958 -16.95,14.06818l0,126.61363c0,7.7586 7.60208,14.06818 16.95,14.06818l220.35001,0c9.34793,0 16.95,-6.30958 16.95,-14.06818l0,-126.61363c0,-7.7586 -7.60208,-14.06818 -16.95,-14.06818zm-163.81328,46.4672c2.4408,-2.37049 6.5766,-4.15011 9.99203,-4.26266c0.43223,3.29899 -1.16108,6.60501 -3.5256,8.98957c-2.373,2.37752 -6.25455,4.22045 -10.05983,3.9813c-0.52545,-3.23568 1.39838,-6.59798 3.5934,-8.7082zm19.40775,45.02521c-2.83065,3.4256 -5.763,6.84417 -10.38188,6.90748c-4.5426,0.07034 -6.0003,-2.22981 -11.187,-2.22981c-5.19518,0 -6.8139,2.1665 -11.11073,2.30015c-4.45785,0.14068 -7.85633,-3.70697 -10.70393,-7.1185c-5.8308,-6.98485 -10.2717,-19.73766 -4.29683,-28.34739c2.96625,-4.28376 8.2716,-6.99189 14.02613,-7.05519c4.3731,-0.07034 8.51738,2.44083 11.187,2.44083c2.6781,0 7.70378,-3.02466 12.9837,-2.58151c2.2035,0.07737 8.41568,0.73858 12.39893,5.58507c-0.32205,0.16178 -7.40715,3.58739 -7.33088,10.70589c0.09323,8.51125 9.00045,11.35302 9.10215,11.38116c-0.08475,0.20399 -1.4238,4.0446 -4.68668,8.01183zm35.28143,-6.26034l-10.76325,0l0,13.18189l-7.23765,0l0,-38.62419l18.22125,0c8.99198,0 15.36518,5.16302 15.36518,12.6895s-6.441,12.75281 -15.594,12.75281l0.00848,0zm46.7481,13.11858l-6.65288,0l0,-4.85352l-0.15255,0c-1.8984,3.15127 -6.28845,5.15599 -11.04293,5.15599c-7.10205,0.06331 -11.92433,-3.39747 -11.92433,-8.56049c0,-5.09972 4.746,-8.01886 13.3905,-8.50422l9.43268,-0.42205l0,-2.25091c0,-3.33416 -2.712,-5.15599 -7.31393,-5.15599c-3.81375,0 -6.58508,1.63894 -7.16985,4.12901l-6.51728,0c0.22035,-5.16302 6.07658,-8.9333 13.899,-8.9333c8.55975,0 14.05155,3.77027 14.05155,9.47492l0,19.92054zm23.85713,1.33648c-3.00015,6.98485 -6.29693,9.22873 -13.46678,9.22873a18.16193,15.07406 0 0 1 -2.7798,-0.11958l0,-4.73394c0.5085,0.11958 1.61025,0.11958 2.2035,0.11958c3.2883,0 5.1867,-1.15359 6.35625,-4.25562l0.5085,-1.51233l-12.72945,-29.14927l7.54275,0l9.00045,23.74006l0.14408,0l9.00045,-23.74006l7.31393,0l-13.09388,30.42244z"/>
  </g>
 </g>
</svg>