<svg width="300" height="160" xmlns="http://www.w3.org/2000/svg" xmlns:svg="http://www.w3.org/2000/svg" class="main-header__logo-image">
 <g>
  <title>Layer 1</title>
  <path id="svg_4" fill="#4285f4" d="m141.14,73.64a85.79,85.79 0 0 0 -1.24,-14.64l-67.9,0l0,27.73l38.89,0a33.33,33.33 0 0 1 -14.38,21.88l0,18l23.21,0c13.59,-12.53 21.42,-31.06 21.42,-52.97z"/>
  <path id="svg_5" fill="#34a853" d="m72,144c19.43,0 35.79,-6.38 47.72,-17.38l-23.21,-18c-6.46,4.38 -14.78,6.88 -24.51,6.88c-18.78,0 -34.72,-12.66 -40.42,-29.72l-23.91,0l0,18.55a72,72 0 0 0 64.33,39.67z"/>
  <path id="svg_6" fill="#fbbc04" d="m31.58,85.78a43.14,43.14 0 0 1 0,-27.56l0,-18.55l-23.91,0a72,72 0 0 0 0,64.66l23.91,-18.55z"/>
  <path id="svg_7" fill="#ea4335" d="m72,28.5a39.09,39.09 0 0 1 27.62,10.8l0,0l20.55,-20.55a69.18,69.18 0 0 0 -48.17,-18.75a72,72 0 0 0 -64.33,39.67l23.91,18.55c5.7,-17.06 21.64,-29.72 40.42,-29.72z"/>
  <g stroke="null" id="svg_9">
   <path id="svg_1" fill="#5f6368" d="m159.58715,88.77348l0,20.26362l-9.48715,0l0,-50.04216l25.16157,0a22.75148,15.41632 0 0 1 16.29315,4.33222a20.55353,13.927 0 0 1 6.806,10.56104a20.45924,13.86311 0 0 1 -6.806,10.62093q-6.59976,4.26434 -16.29315,4.26035l-15.67442,0l0,0.00399zm0,-23.62159l0,17.47263l15.91013,0a12.53954,8.49675 0 0 0 9.38697,-2.58735a12.58668,8.52869 0 0 0 0,-12.23004a12.37454,8.38495 0 0 0 -9.38697,-2.65523l-15.91013,0z"/>
   <path stroke="null" id="svg_2" fill="#5f6368" d="m220.22241,73.68057q10.51836,0 16.60546,3.80916t6.0812,10.44525l0,21.10212l-9.07466,0l0,-4.75147l-0.41248,0q-5.89264,5.86946 -15.67442,5.86946q-8.34987,0 -13.97145,-3.35398a15.80406,10.70877 0 0 1 -5.62158,-8.38495q0,-5.31446 5.928,-8.45282t15.82763,-3.14635q8.45005,0 13.91841,2.09624l0,-1.46936a10.80121,7.31886 0 0 0 -3.91861,-5.68979a13.43522,9.10366 0 0 0 -9.15716,-2.34379q-7.94917,0 -12.58079,4.54384l-8.35576,-3.5656q6.89439,-6.70796 20.40621,-6.70796zm-12.27437,24.87534a7.57793,5.13478 0 0 0 3.14667,4.19247a11.57314,7.84192 0 0 0 7.37169,1.67699a15.12641,10.2496 0 0 0 10.67157,-3.00261q4.71411,-3.0066 4.71411,-7.05533q-4.43716,-2.3957 -12.37454,-2.3957q-5.78068,0 -9.64036,1.88861c-2.59865,1.27771 -3.88914,2.83092 -3.88914,4.69557z"/>
   <path id="svg_3" fill="#5f6368" d="m295.00001,74.79857l-31.67883,49.33144l-9.79357,0l11.75582,-17.26101l-20.83048,-32.07042l10.31212,0l15.05569,24.59584l0.20624,0l14.64321,-24.59584l10.3298,0z"/>
  </g>
 </g>
</svg>