<svg width="256" height="160" xmlns="http://www.w3.org/2000/svg" xmlns:svg="http://www.w3.org/2000/svg">
 <style type="text/css">.st0{fill:#161E6F;}</style>
 <g>
  <title>Layer 1</title>
  <g stroke="null" id="svg_1">
   <g stroke="null" id="svg_2">
    <path stroke="null" id="svg_3" d="m39.95905,57.15446l-8.66591,23.3502c-1.88277,5.11318 -3.71396,10.05593 -5.15828,15.16911l-0.10317,0c-0.23212,-5.11318 -0.51583,-9.98775 -0.92849,-15.16911l-0.9027,-12.23755l-0.82532,-11.11265l-0.92849,0l-7.71162,0l0,0l-11.29663,0l-0.43845,0l0,1.70439l0.69637,0c9.43965,0.68176 11.83825,7.94248 12.45724,11.65806l-1.13482,-11.65806l0,0l1.1864,11.99894c-0.02579,-0.10226 -0.02579,-0.23862 -0.05158,-0.34088l0.20633,2.18162c0,0 0,-0.06818 0,-0.2727l3.3013,33.81519l9.5686,0l19.93674,-49.08656l-9.20752,0zm-25.09502,0.23862" class="st0"/>
    <path stroke="null" id="svg_4" d="m62.06227,56.98402l-7.32475,49.12065l-8.25324,0l7.32475,-49.12065l8.25324,0z" class="st0"/>
    <path stroke="null" id="svg_5" d="m62.62968,94.7534c2.29543,1.73848 5.57094,3.13609 9.10436,3.13609c3.19813,0 6.13835,-1.90892 6.13835,-5.76085c0,-2.76112 -1.65065,-4.60186 -5.20986,-6.91984c-4.12662,-2.82929 -8.02112,-6.61305 -8.02112,-13.05566c0,-9.91958 6.80893,-15.95313 15.24271,-15.95313c4.69403,0 7.45371,1.29534 9.10436,2.48842l-3.68817,8.7265c-1.26378,-0.88629 -2.24385,-2.62477 -6.11256,-2.55659c-3.84292,0.06818 -5.85464,2.82929 -5.85464,5.52224c0,2.82929 2.34702,4.60186 5.62252,6.91984c4.69403,3.13609 7.68583,7.12437 7.68583,12.9534c0,10.94221 -7.11842,16.53263 -15.70695,16.53263c-5.3904,0 -9.77494,-2.82929 -11.60612,-4.60186l3.3013,-7.43116z" class="st0"/>
    <path stroke="null" id="svg_6" d="m98.60867,93.3558l-4.59087,12.74887l-8.76907,0l18.80192,-49.12065l10.60026,0l4.53928,49.12065l-8.66591,0l-0.79953,-12.74887l-11.11609,0zm10.7808,-8.01065l-0.74795,-10.56725c-0.18054,-2.69294 -0.41266,-6.61305 -0.56741,-9.61278l-0.10317,0c-0.98007,2.99973 -2.06331,6.78349 -3.09497,9.61278l-3.84292,10.56725l8.35641,0z" class="st0"/>
   </g>
   <g stroke="null" id="svg_7">
    <path stroke="null" id="svg_8" d="m131.80218,107.29774c-2.50176,0 -4.41033,-0.81811 -5.77727,-2.42024c-1.36694,-1.63622 -2.03752,-3.9542 -2.03752,-6.95393c0,-2.38615 0.3095,-4.56778 0.9027,-6.51079c0.5932,-1.94301 1.41853,-3.61332 2.47597,-5.04501c1.03166,-1.36352 2.24385,-2.45433 3.68817,-3.23835c1.44432,-0.78402 2.94022,-1.15899 4.51349,-1.15899c1.26378,0 2.45018,0.17044 3.53342,0.51132c1.08324,0.34088 2.06331,0.8522 2.94022,1.49987l-1.08324,5.8972l-0.54162,0c-0.77374,-1.1249 -1.57327,-1.94301 -2.34702,-2.45433c-0.77374,-0.51132 -1.70223,-0.78402 -2.73389,-0.78402c-1.83119,0 -3.35288,0.98855 -4.56508,2.93156c-1.1864,1.94301 -1.77961,4.43143 -1.77961,7.46525c0,1.94301 0.33529,3.34061 0.98007,4.2269c0.67058,0.88629 1.62486,1.29534 2.88864,1.29534c1.13482,0 2.21806,-0.30679 3.19813,-0.92037c1.00586,-0.61358 1.93435,-1.36352 2.83705,-2.31798l0.49004,0l-1.08324,5.82903c-0.36108,0.20453 -0.79953,0.44314 -1.28957,0.71585c-0.49004,0.2727 -0.98007,0.51132 -1.41853,0.68176c-0.5932,0.23862 -1.16061,0.40905 -1.67644,0.51132c-0.46424,0.20453 -1.1864,0.23862 -2.11489,0.23862z" class="st0"/>
    <path stroke="null" id="svg_9" d="m157.07774,92.60586c0,0.2727 -0.02579,0.61358 -0.05158,1.02264c-0.02579,0.40905 -0.07737,0.81811 -0.15475,1.26125l-2.0891,11.96485l-4.51349,0l1.59907,-9.13555c0.10317,-0.68176 0.20633,-1.29534 0.28371,-1.77257c0.07737,-0.47723 0.10317,-0.92037 0.10317,-1.29534c0,-0.71585 -0.12896,-1.26125 -0.41266,-1.56804c-0.28371,-0.30679 -0.77374,-0.47723 -1.4959,-0.47723c-0.36108,0 -0.77374,0.10226 -1.23799,0.30679c-0.46424,0.20453 -0.98007,0.51132 -1.54748,0.92037l-2.26964,13.05566l-4.4877,0l4.43612,-25.49774l4.4877,0l-1.59907,9.13555c0.9027,-0.78402 1.75381,-1.43169 2.50176,-1.87483s1.59907,-0.68176 2.50176,-0.68176c1.26378,0 2.24385,0.40905 2.91443,1.22716c0.69637,0.74993 1.03166,1.90892 1.03166,3.40879z" class="st0"/>
    <path stroke="null" id="svg_10" d="m166.07893,107.33183c-2.37281,0 -4.204,-0.68176 -5.49357,-2.07936c-1.28957,-1.3976 -1.93435,-3.30653 -1.93435,-5.76085c0,-1.67031 0.20633,-3.20426 0.64478,-4.60186c0.41266,-1.3976 1.03166,-2.62477 1.83119,-3.68149c0.74795,-1.02264 1.70223,-1.84075 2.86284,-2.45433c1.13482,-0.61358 2.3986,-0.88629 3.76554,-0.88629c2.06331,0 3.63659,0.54541 4.69403,1.67031s1.57327,2.76112 1.57327,4.90866c0,0.74993 -0.05158,1.46578 -0.18054,2.18162s-0.25791,1.43169 -0.43845,2.11345l-10.36814,0c0,0.06818 0,0.13635 0,0.20453c0,0.06818 0,0.13635 0,0.20453c0,1.26125 0.33529,2.28389 1.03166,2.99973c0.67058,0.71585 1.72802,1.09081 3.12076,1.09081c0.98007,0 1.90856,-0.20453 2.78547,-0.64767c0.87691,-0.44314 1.62486,-0.92037 2.26964,-1.46578l0.49004,0l-0.82532,4.73822c-0.87691,0.51132 -1.77961,0.88629 -2.73389,1.1249c-1.00586,0.23862 -2.01173,0.34088 -3.09497,0.34088zm3.40446,-12.03302c0.02579,-0.20453 0.05158,-0.37497 0.05158,-0.54541c0,-0.17044 0.02579,-0.34088 0.02579,-0.51132c0,-0.8522 -0.20633,-1.53395 -0.61899,-1.9771c-0.41266,-0.47723 -0.98007,-0.68176 -1.75381,-0.68176c-0.92849,0 -1.70223,0.34088 -2.32122,0.98855c-0.61899,0.64767 -1.10903,1.56804 -1.41853,2.76112l6.03518,0l0,-0.03409z" class="st0"/>
    <path stroke="null" id="svg_11" d="m181.63114,107.33183c-0.95428,0 -1.83119,-0.17044 -2.6823,-0.47723s-1.54748,-0.78402 -2.16648,-1.46578c-0.5932,-0.64767 -1.08324,-1.46578 -1.41853,-2.42024s-0.51583,-2.11345 -0.51583,-3.3747c0,-1.63622 0.23212,-3.17017 0.72216,-4.60186c0.46424,-1.43169 1.13482,-2.65886 2.01173,-3.71558c0.85112,-1.02264 1.88277,-1.87483 3.09497,-2.45433c1.2122,-0.61358 2.52756,-0.92037 3.94608,-0.92037c0.85112,0 1.70223,0.13635 2.52756,0.37497c0.85112,0.23862 1.62486,0.61358 2.34702,1.09081l-0.95428,5.04501l-0.64478,0c-0.49004,-0.78402 -1.03166,-1.36352 -1.65065,-1.73848s-1.31536,-0.57949 -2.06331,-0.57949c-1.39273,0 -2.52756,0.64767 -3.37867,1.9771c-0.85112,1.32943 -1.28957,2.96565 -1.28957,4.94274c0,1.36352 0.25791,2.38615 0.79953,3.06791c0.51583,0.68176 1.34115,1.02264 2.45018,1.02264c0.85112,0 1.65065,-0.23862 2.34702,-0.68176c0.69637,-0.47723 1.31536,-0.98855 1.8054,-1.53395l0.64478,0l-0.95428,5.04501c-0.9027,0.51132 -1.67644,0.88629 -2.34702,1.09081c-0.67058,0.20453 -1.54748,0.30679 -2.63072,0.30679z" class="st0"/>
    <path stroke="null" id="svg_12" d="m203.68277,106.82051l-4.69403,0l-2.75968,-8.11292l-1.96015,2.31798l-1.03166,5.82903l-4.4877,0l4.43612,-25.49774l4.4877,0l-2.65651,15.2032l6.24152,-8.11292l5.13249,0l-6.44785,8.01065l3.73975,10.36272z" class="st0"/>
    <path stroke="null" id="svg_13" d="m221.19512,95.16246c0,1.73848 -0.20633,3.34061 -0.64478,4.84048c-0.43845,1.49987 -1.05745,2.79521 -1.85698,3.88602c-0.82532,1.1249 -1.77961,1.9771 -2.86284,2.59068c-1.08324,0.61358 -2.37281,0.92037 -3.81713,0.92037c-2.06331,0 -3.66238,-0.64767 -4.77141,-1.9771c-1.10903,-1.29534 -1.65065,-3.13609 -1.65065,-5.45406c0,-1.63622 0.20633,-3.20426 0.61899,-4.67004c0.41266,-1.46578 1.03166,-2.76112 1.83119,-3.88602c0.77374,-1.09081 1.75381,-1.9771 2.88864,-2.62477s2.42439,-0.95446 3.84292,-0.95446c2.0891,0 3.66238,0.64767 4.77141,1.94301c1.08324,1.32943 1.65065,3.102 1.65065,5.38589zm-5.80306,6.03356c0.38687,-0.74993 0.67058,-1.60213 0.85112,-2.5225c0.20633,-0.92037 0.28371,-2.01119 0.28371,-3.30653c0,-1.1249 -0.18054,-1.9771 -0.56741,-2.59068c-0.36108,-0.61358 -0.95428,-0.92037 -1.77961,-0.92037c-0.61899,0 -1.1864,0.20453 -1.65065,0.61358c-0.46424,0.40905 -0.9027,0.98855 -1.26378,1.70439c-0.33529,0.68176 -0.5932,1.53395 -0.79953,2.55659c-0.20633,1.02264 -0.28371,2.04527 -0.28371,3.13609c0,1.26125 0.20633,2.14754 0.64478,2.69294s1.00586,0.81811 1.72802,0.81811c0.54162,0 1.05745,-0.20453 1.54748,-0.57949c0.51583,-0.37497 0.92849,-0.92037 1.28957,-1.60213z" class="st0"/>
    <path stroke="null" id="svg_14" d="m239.01697,88.44714l-3.22392,18.40746l-4.4877,0l0.36108,-2.04527c-0.43845,0.37497 -0.87691,0.74993 -1.31536,1.05672c-0.41266,0.34088 -0.82532,0.61358 -1.2122,0.78402c-0.49004,0.2727 -0.92849,0.44314 -1.31536,0.54541s-0.79953,0.13635 -1.1864,0.13635c-1.2122,0 -2.19227,-0.37497 -2.88864,-1.15899c-0.69637,-0.78402 -1.05745,-1.90892 -1.05745,-3.44288c0,-0.40905 0.02579,-0.78402 0.05158,-1.15899c0.02579,-0.34088 0.07737,-0.74993 0.15475,-1.15899l2.0891,-11.96485l4.51349,0l-1.59907,9.13555c-0.12896,0.71585 -0.20633,1.29534 -0.28371,1.80666c-0.05158,0.51132 -0.10317,0.92037 -0.10317,1.29534c0,0.71585 0.12896,1.22716 0.38687,1.56804c0.25791,0.30679 0.77374,0.47723 1.4959,0.47723c0.36108,0 0.77374,-0.10226 1.26378,-0.30679c0.46424,-0.20453 0.98007,-0.51132 1.54748,-0.88629l2.26964,-13.05566l4.53928,0l0,-0.03409z" class="st0"/>
    <path stroke="null" id="svg_15" d="m244.69108,107.19548c-1.54748,0 -2.65651,-0.34088 -3.3013,-1.02264c-0.67058,-0.68176 -0.98007,-1.67031 -0.98007,-2.99973c0,-0.34088 0.02579,-0.68176 0.05158,-1.02264c0.05158,-0.34088 0.10317,-0.71585 0.15475,-1.15899l1.52169,-8.7265l-1.83119,0l0.67058,-3.88602l1.83119,0l0.92849,-5.24953l4.4877,0l-0.9027,5.24953l4.1782,0l-0.67058,3.88602l-4.1782,0l-1.16061,6.64714c-0.07737,0.44314 -0.15475,0.92037 -0.23212,1.3976c-0.07737,0.47723 -0.10317,0.8522 -0.10317,1.19308c0,0.64767 0.12896,1.1249 0.41266,1.36352c0.28371,0.2727 0.69637,0.37497 1.28957,0.37497c0.23212,0 0.54162,-0.06818 0.9027,-0.17044c0.38687,-0.10226 0.67058,-0.23862 0.9027,-0.37497l0.36108,0l-0.69637,3.9542c-0.51583,0.17044 -1.03166,0.30679 -1.59907,0.37497s-1.26378,0.17044 -2.03752,0.17044z" class="st0"/>
   </g>
  </g>
 </g>
</svg>